<svg width="106" height="36" viewBox="0 0 106 36" xmlns="http://www.w3.org/2000/svg">
    <g fill="none" fill-rule="evenodd">
        <path d="M0 0h106v36H0z"/>
        <path d="m5.854 17.62 5.856 3.29v6.558l-5.856 3.286L0 27.468v-6.559l5.854-3.29zm13.4 0 5.857 3.29v6.558l-5.856 3.286-5.855-3.286v-6.559l5.855-3.29zm51.216-4.048v9.284l2.008 1.74.022-.018-1.442 1.612h-.023l-2.547-2.204-3.042 1.779a3.207 3.207 0 0 1-1.64.433 3.434 3.434 0 0 1-2.32-.925 3.159 3.159 0 0 1-1-2.369 3.282 3.282 0 0 1 1.66-2.86l6.133-3.516v-.782h-7.184v-2.174h9.375zm-35.654.104c.973-.476 2.07-.642 3.143-.476a5.65 5.65 0 0 1 2.742 1.407c.093.082.216.197.344.32l.192.187c.19.186.362.36.437.435l.04.04-1.431 1.621c.017-.021-.973-.938-1.072-1.022a3.75 3.75 0 0 0-1.68-.915 2.558 2.558 0 0 0-1.91.329 1.22 1.22 0 0 0-.588 1.126c.007.451.259.862.656 1.074.663.355 1.38.596 2.12.713.471.09.932.209 1.34.317.406.106.803.253 1.182.435.382.134.732.347 1.026.626.283.236.505.532.652.868.184.362.28.761.287 1.165a3.552 3.552 0 0 1-1.42 2.97 5.406 5.406 0 0 1-3.413 1.064 6.556 6.556 0 0 1-1.374-.14 6.788 6.788 0 0 1-3.22-1.829 5.453 5.453 0 0 1-.076-.069l-.142-.132c-.22-.203-.521-.486-.521-.486l1.391-1.674c.298.28.59.562.9.823.38.368.795.697 1.239.987a3.633 3.633 0 0 0 3.58 0c.455-.275.724-.774.704-1.305a.995.995 0 0 0-.69-.97c-.77-.328-1.578-.57-2.404-.715a7.53 7.53 0 0 1-2.924-1.188c-.732-.527-1.088-1.33-1.088-2.46a3.292 3.292 0 0 1 1.252-2.651c.225-.184.468-.343.726-.475zm21.502-.164c0-.027.007.008.007.008h2.334L56.71 25.92H52.88l-1.398-10.696h-.029l-1.412 10.692h-3.824l-1.91-12.405h2.34l1.538 10.714h.029l1.352-10.714h3.834l1.347 10.714h.031zm40.67-.353a2.839 2.839 0 0 1 2.256.93c.529.677.796 1.52.751 2.378v9.425H97.7v-9.009a2.136 2.136 0 0 0-.35-1.076 1.2 1.2 0 0 0-1.06-.435c-.44-.014-.86.176-1.137.518a2.637 2.637 0 0 0-.433 1.69v8.323h-2.284v-9.07a1.77 1.77 0 0 0-.385-1.026 1.24 1.24 0 0 0-1-.435 1.363 1.363 0 0 0-1.173.543c-.308.445-.461.982-.436 1.521v8.475h-2.278v-12.4h2.278v1.148c.186-.43.488-.797.87-1.064.46-.298.996-.45 1.543-.436a2.45 2.45 0 0 1 1.574.492c.37.296.65.69.807 1.138a2.934 2.934 0 0 1 2.752-1.63zm-16.399-.013a3.961 3.961 0 0 1 2.9 1.21 3.943 3.943 0 0 1 1.242 2.907v.714h-2.143v-.714a1.932 1.932 0 0 0-2.117-1.922 2.003 2.003 0 0 0-1.738 2.026v6.32h3.126v2.143h-7.391v-2.142h2.05v-6.826l-2.062-1.867 1.43-1.597 1.452 1.331a3.911 3.911 0 0 1 3.251-1.583zm-12.31 5.938-5.034 2.89c-.35.191-.565.559-.559.957a1.124 1.124 0 0 0 1.1 1.1c.2-.004.398-.064.568-.174h-.027l3.952-2.296v-2.477zM12.509 6.167l2.243 1.339v3.863l.77.43 2.85 1.6v2.612l-5.853 3.286-5.855-3.286V9.453l5.845-3.286zm6.847-.917L22.476 7v3.504l-3.095 1.734-.025-.013-3.1-1.738V7.013l.005-.025 3.095-1.738z" fill="#303030"/>
    </g>
</svg>
