<svg width="250" height="273" viewBox="0 0 250 273" xmlns="http://www.w3.org/2000/svg">
    <g fill="#303030" fill-rule="nonzero">
        <path d="M44.546 133.005s-.488.803-1.807-.402c-.114 0-.272.086-.229.158a1.634 1.634 0 0 0 2.222.832.308.308 0 1 0-.186-.588zm-3.57-5.807a.2.2 0 0 0-.315.244s.688 1.046.76 1.118c.071.072.473 0 .4-.2a9.835 9.835 0 0 0-.845-1.162zm-.23-1.147c.158 0 0-.444-.243-.444a1.118 1.118 0 0 0-1.004 1.362c0 .172.359.186.359-.086 0 0 .129-.875.889-.832zm61.106-78.353a4.301 4.301 0 0 0 5.735-1.434 3.14 3.14 0 0 0-1.004-4.043 3.8 3.8 0 0 0-5.935 3.513c.109.794.546 1.506 1.204 1.964zm.43-5.047c2.466-1.935 5.893.445 5.047 2.968a3.713 3.713 0 0 1-4.96 1.75 2.781 2.781 0 0 1-.087-4.718zm64.79-31.485a6.065 6.065 0 0 0 2.395.56 3.986 3.986 0 0 0 3.484-2.008c1.548-2.867-2.08-6.079-5.205-4.3a3.412 3.412 0 0 0-.674 5.748zm.473-5.09c2.48-1.935 5.879.445 5.047 2.969-.831 2.523-5.247 2.781-6.122.473a3.14 3.14 0 0 1 1.075-3.441zM178.8 144.088a11.011 11.011 0 0 0-.645-13.634c-3.44-3.886-9.764-4.56-14.08-3.327-4.845 1.348-7.168 5.32-7.455 10.28-.673 13.004 15.614 15.355 22.18 6.681zm-15.77-16c6.408-2.667 15.67.172 17.046 7.398 1.434 7.986-5.85 13.75-13.405 12.904a11.097 11.097 0 0 1-7.169-3.484c-3.885-4.545-2.824-14.18 3.527-16.818zm23.01 120.404c-5.734-.344-82.64-1.276-89.192-1.276a.2.2 0 0 0 0 .388c11.6.372 82.626 1.648 89.193 1.648a.387.387 0 0 0 0-.76zm-89.034-8.043c-.244 0-.244.359 0 .402 11.642.63 83.156.831 89.637.63.473 0 .473-.774 0-.76-11.642.675-83.128-.171-89.637-.272zm-.66-6.495c5.836 0 83.343-.358 89.953-.272a.401.401 0 1 0 0-.803c-11.728-.2-83.4.359-89.952.717-.259-.072-.259.358 0 .358z"/>
        <path d="M245.139 159.056c.287-13.965-1.047-58.023-1.362-60.776-.516-4.602-2.194-9.334-6.724-11.327-3.556-1.605-4.89-1.333-46.009-2.408-2.25-1.434-11.125-6.954-11.125-6.954a5.161 5.161 0 0 0 1.52-3.04c0-1.046-.36-2.652-1.434-2.967a.703.703 0 0 0-.89.674c0 .444.718 4.444-3.526 3.684-6.595-1.92 4.086-11.04 2.867-13.047a4.488 4.488 0 0 0 2.165-7.914 5.62 5.62 0 0 0-3.197-1.247c.473-12.287 0-43.012 0-46.052A7.613 7.613 0 0 0 167.99.514c-5.649 1.29-66.382 36.015-68.346 37.707a8.258 8.258 0 0 0-3.168 3.957c-.43.96-8.517 37.607-9.477 42.338-11.327 0-78.669 1.118-80.433 1.319C.832 86.351.23 90.437 0 96.559c0 1.878.602 129.839 2.867 137.122 1.434 5.09 5.492 7.814 10.495 8.688 3.683.357 7.383.52 11.083.488.072 7.312.272 14.724.63 22.008l1.88.114c0 1.205.171 6.968.286 7.441.115.474 1.835.086 12.53.288a.245.245 0 0 0 .23-.36c-.56-2.179-4.63-3.598-6.839-3.97 0 0-.401-2.682-.473-3.112l4 .23c1.592-6.123 3.513-15.04 5.032-22.725h6.653c2.867 10.48 5.735 19.327 5.735 19.327h4.072c0 .989.157 6.437.33 6.91.172.473 1.849.086 12.516.287a.258.258 0 0 0 .244-.359c-.56-2.164-4.646-3.598-6.84-3.957 0 0-.372-2.566-.444-2.967h1.792c-.186-6.753-.358-13.076-.516-19.198h8.803c0 16.746-.716 19.054.646 21.32a6.093 6.093 0 0 0 4.76 2.408c2.523.273 109.364-.244 110.397-.487a3.326 3.326 0 0 0 1.92-.918c.445-.602.087-4.918 0-6.28h2.366c1.721 0 4.201.158 5.205-1.605.53-.904-.473-31.098-2.294-33.45-1.32-1.72-3.513-1.634-5.434-1.605-5.247 0-104.361 1.047-105.795 1.333a2.652 2.652 0 0 0-2.394 2.15c-.244 1.635 0 6.997 0 8.001-1.434 0-6.423 0-7.37.53-2.308 1.205-1.92 4.86-1.92 7.714h-8.847c-.401-15.484-3.04-53.048-5.233-55.026.115 0 2.753-.961 3.24-5.391.603-.201 7.958-3.04 8-3.212.201-1.993.36-4 .56-6.036a3.427 3.427 0 0 1 2.365.832c0 2.208.316 44.445.631 48.058 0 .373.602.402.602 0-.2-6.466-.63-44.961-.63-47.413.401.516.73 1.118 1.433 1.319.96.33 2.868-2.28 2.724-4.445a2.452 2.452 0 0 0-1.433-2.15 6.896 6.896 0 0 0-1.047-1.119c-.35-.22-.749-.347-1.161-.372 1.433-9.563 4.573-33.88 4.803-36.403.286-.487 1.118-1.562 1.003-1.72-.28-.503-.601-.983-.96-1.434.056-1.08.056-2.16 0-3.24.401-.402.416-.244.315.129a.674.674 0 0 0 .244.717c.56.358 1.204-.445 1.52-.803a3.44 3.44 0 0 0 .444-3.8 6.337 6.337 0 0 0-1.763-2.25s1.032-5.549 1.562-8.273c17.454 0 34.912-.043 52.374-.13l-24.53 18.926s-.674.115-.846.115a4.76 4.76 0 0 0-4.201 3.168c-.96 2.151-.56 4.603-.273 6.84.631 5.204 9.119 64.345 9.119 64.388.53 5.262 2.365 6.437 5.964 6.437 2.394 0 122.412-16.573 123.846-16.889.239 12.005.09 24.01-.445 36.015-.874 17.535-9.047 12.244-42.41 13.047a.2.2 0 0 0 0 .402c27.872 0 36.79 2.48 40.933-4.301 2.438-3.871 2.409-7.728 2.409-45.42 2.308-.617 4.932-1.535 5.52-3.915.315-.588-4.402-27.198-4.846-29.52zM84.117 226.082c.158-1.433.545-2.15 2.867-2.28 1.52-.085 105.193-1.16 106.44-1.118a4.301 4.301 0 0 1 2.868.99c2.867 2.767 2.867 32.975 2.71 33.133a3.384 3.384 0 0 1-2.868 1.333c-1.147 0-108.117 0-109.193-.2-2.38-.459-3.068-2.036-3.125-4.445-.058-2.408.129-25.778.3-27.413zm-9.276 12a4.301 4.301 0 0 1 1.204-3.154c.96-.802 6.194-.76 7.484-.802 0 4.086-.244 17.204-.086 19.642a4.66 4.66 0 0 0 2.48 4.401c1.75.76-3.67.488 105.523.488 0 1.319.344 5.634-.201 5.993a5.835 5.835 0 0 1-2.867.645c-1.205 0-107.243.717-109.566.287a4.301 4.301 0 0 1-4-4.201c-.215-1.248-.1-21.98.029-23.298zm168.692-129.164c0 3.24 1.161 41.578 1.118 47.4-.114-.603-7.598-42.038-8.272-43.672a2.265 2.265 0 0 0-2.48-1.162s-2.438-1.605-3.728-2.408c4.444-.043 8.889-.072 13.362-.158zm-64.03-30.925s8.086 5.075 10.437 6.595c-7.512-.115-14.996-.115-22.524-.115.803-.645 5.735-4.53 7.327-5.807 1.61.47 3.344.225 4.76-.673zm.444-19.14a2.867 2.867 0 1 1-2.867-2.868 2.867 2.867 0 0 1 2.839 2.867h.028zM165.065 2.563a9.506 9.506 0 0 1 5.893-1.434c5.735 1.606 5.735 5.162 5.735 8.044a7.01 7.01 0 0 1-1.72 3.842c-3.685 4.2-11.886 2.681-13.005-3.083a7.685 7.685 0 0 1 3.097-7.369zM96.648 44.3c1.72-8.947 13.19-7.9 14.681-.96a7.169 7.169 0 0 1-3.513 7.756c-5.118 2.81-12.287-1.047-11.168-6.796zm-.56 1.52c.416 5.62 6.639 8.158 11.284 6.193 7.613-3.11 5.735-14.796-3.484-14.796-.712.004-1.422.071-2.122.201.158-.115 36.775-21.047 61.65-33.98a7.37 7.37 0 0 0 3.126 12.202 8.316 8.316 0 0 0 10.409-4.445c.071 11.284-.201 39.786-.287 42.625-4.99.588-6.294 6.308-3.197 8.76a5.577 5.577 0 0 0 2.394 1.161s.731.717-2.193 4c-4.23 4.689-2.997 9.262.559 10.768-2.524 1.993-5.004 4-7.527 5.993l-79.028.086c.531-2.61 7.57-35.413 8.416-38.768zM33.463 93.133c2.18.545 1.635 3.14-.129 4.158a2.566 2.566 0 0 1-3.398-1.205c-1.075-2.208 1.893-3.398 3.527-2.968v.015zm-13.09.43a2.409 2.409 0 0 1 3.757 1.319c.401 2.007-1.434 2.867-3.155 2.61-2.365-.345-2.451-2.911-.616-3.944l.014.015zm-6.839 1.749c-.086 2.237-4.071 2.953-4.917.846-1.448-3.527 5.032-4.144 4.917-.846zm19.284 173.051c-.875 0-4.402-.086-5.233 0 0-1.118-.172-2.28-.172-3.398l5.047.272c.043.502.315 2.897.358 3.126zm15.57-62.31c-.272 1.434-2.48 16.875-3.369 22.667.96 4.603 2.05 8.717 3.283 13.277H41.98c4.071-20.072 5.147-33.048 6.079-36.059a.177.177 0 0 1 .33.13v-.015zM63.83 261.97c0 .43.286 2.68.358 2.867-.875 0-4.402-.072-5.233 0 0-.96-.13-1.964-.172-2.867 1.72 0 3.37 0 5.047-.03v.03zm7.04-83.673c-.23 0-6.997 2.552-7.485 2.753 0-1.32-2.437-12.402-2.753-13.807.445.086 9.277.172 11.126.287-.244 3.57-.56 7.168-.889 10.738v.03zm6.967-9.09c.644.67.9 1.623.674 2.524-.115.645-1.233 3.125-1.878 3.125-.645 0-.932-.745-1.678-1.649v-3.154c.39.346.836.623 1.32.817 1.003.445 2.05-.401 1.562-1.691v.028zm-.602-.157c.199.31.27.685.2 1.046a.746.746 0 0 1-1.003.43c-.832-.272-1.434-1.19-2.28-1.362a.215.215 0 0 0-.114.402c.124.04.244.093.358.157 0 1.004-.115 1.965-.115 2.968a4.172 4.172 0 0 0-2.365-.717c.115-1.433.272-2.867.401-4.3a13.362 13.362 0 0 1 2.868 0c.53-.13 1.09-.058 2.05 1.347v.029zm-2.566-1.965a11.14 11.14 0 0 0-2.28.201s-.158-.358-.315-.358c-1.965-.115-11.083-.158-11.47 0 0-.144-2.008-9.334-2.15-9.477A120.433 120.433 0 0 0 79.6 131.528c-.359 1.921-4.531 32.804-4.932 35.528v.028zm5.806-38.251c-6.767 10.466-13.018 19.484-21.764 27.498a29.75 29.75 0 0 1-9.448 6.28 15.155 15.155 0 0 1-12.115-.33c-.172 0-.33.172-.172.287 3.082 1.964 6.81 1.878 10.523 1.161 5.09-1.003 10.323-5.85 10.61-6.05.645 3.685 4.688 23.857 4.717 23.93a5.577 5.577 0 0 1-5.19 5.333c-2.566.33-29.535.53-31.184 0-4.63-1.248-3.713-15.886-2.036-21.621a113.838 113.838 0 0 1 4.89-13.477c2.222-4.301 5.204-7.77 11.756-11.8 10.954-6.839 32.775-16.731 34.768-17.735.086.172 4.287 6.05 4.645 6.495v.029zM46.51 136a115.96 115.96 0 0 0-11.47 7.441c0-.114-1.19-5.634-1.319-5.634-3.828-.287-3.756-.89-4.071-1.276a2.394 2.394 0 0 1 .473-3.484 2.867 2.867 0 0 1 3.326 1.118c.788.946 1.763 1.82 1.792.602 0-1.806.086-7.082.645-7.728.316-.358 5.448-4.3 5.477-4.3.543 1.16 1.19 2.269 1.936 3.311a4.545 4.545 0 0 0 1.605.789c.359.129 1.434.53 1.52.602.602.516-.846.946-1.046 1.806a58.295 58.295 0 0 0 1.132 6.796v-.043zm32.632-9.878s.444-.875.688-1.276v2.15a9.133 9.133 0 0 1-.688-.874zm2.25-6.868a4.301 4.301 0 0 1 .89 3.685c-.323.496-.672.975-1.047 1.434a2.036 2.036 0 0 0 0-.517.774.774 0 0 0-.516-.516c-.56-.172-1.807 1.678-2.007 2.15 0 0-2.194-3.153-2.237-3.24a18.51 18.51 0 0 1 1.72-2.867 1.979 1.979 0 0 1 3.198-.129zm-.816-1.218a2.638 2.638 0 0 0-2.323.602 14.337 14.337 0 0 0-1.979 3.326c0-.158-.43-.2-.473-.2-2.61.96-24.89 11.928-28.775 14.05-1.118-6.423-1.433-6.266-.559-7.011.359-.316.875-.674.76-1.204-.215-.86-2.194-.947-3.197-1.635-1.004-.688-1.362-2.409-2.323-3.398 1.233-1.434 2.28-3.77.56-5.133-.431-.52-.784-1.099-1.047-1.72a1.434 1.434 0 0 0-1.233-.96c-1.136.071-2.277.009-3.398-.187a2.036 2.036 0 0 0-1.921.186 4.13 4.13 0 0 1-1.65.373 2.58 2.58 0 0 0-2.551.99 10.28 10.28 0 0 1-2.567.487c-.44.055-.833.302-1.075.674-.588.86-.487 2.007-1.649 2.365-.83.306-1.58.796-2.193 1.434-.359.803-.201 1.764-.603 2.523-.4.76-1.433 1.19-1.835 2.036a3.656 3.656 0 0 0 .115 2.366 32.345 32.345 0 0 1-.301 3.527c.115.645 1.032 2.237 1.032 2.566a2.94 2.94 0 0 0 2.567 2.667c.157 0 .43.33.43.401a4.56 4.56 0 0 0 3.14 4.044 22.48 22.48 0 0 0 3.914.286 6.925 6.925 0 0 1 2.967 1.276c.056.368.152.73.287 1.076a25.807 25.807 0 0 0-5.534 6.767 71.686 71.686 0 0 0-5.075 13.004c-1.434 5.118-2.423 12.903-1.434 18.208.602 3.57 1.663 5.735 4.96 6.122-1.433.918-1.648 2.767-1.763 4.717-.874 13.133-1.52 30.94-1.434 49.55-11.8 0-20.316 0-21.506-12.015C2.394 224.72.588 121.234.516 109.677c27.012.202 54.18.288 81.35.316-.115 1.32-1.061 6.725-1.29 8.044zM7.656 105.52a.172.172 0 0 1 0-.33c17.004 0 199.503-.831 228.924-1.433a.344.344 0 0 1 0 .673c-16.417.33-213.755 1.29-228.924 1.09zm127.96 4.301c31.103-.114 62.167-.353 93.193-.717.831.517 3.484 2.237 3.957 2.567-7.685 1.032-121.25 16.89-121.867 16.96 8.387-6.193 16.56-12.473 24.717-18.838v.028zm-30.108 24.89a5.219 5.219 0 0 1 4.402-5.52c7.942-1.147 124.074-16.99 124.146-17.104a1.993 1.993 0 0 1 2.08 1.534c.357 1.118 7.928 43.327 9.447 51.858-5.132-3.441-27.613-20.073-30.251-21.693-4.302-2.566-8.244-3.971-11.614-.286-.989 1.09-23.57 32.775-24.488 33.735-3.613 3.77-6.394 2.251-10.68-.674-14.897-10.437-19.098-14.337-24.13-13.806a10.265 10.265 0 0 0-6.323 3.555c-1.964 2.08-22.94 32.976-23.642 34.252-1.119-9.248-9.09-64.56-8.961-65.88l.014.029zm135.129 57.98c-4.731.846-119.172 16.416-121.408 16.215a4.186 4.186 0 0 1-2.868-1.046c-1.433-1.606-1.433-4.373-1.792-6.639 0 0 13.764-21.204 21.506-31.255a19.355 19.355 0 0 1 5.635-5.634 8.602 8.602 0 0 1 8.244.358c2.724 1.434 20.287 14.337 23.011 15.169a5.893 5.893 0 0 0 6.538-1.678c1.85-1.792 25.534-34.925 26.495-35.527a6.38 6.38 0 0 1 5.735.114c2.767 1.076 32.847 22.854 34.166 23.729.2 1.046 2.25 14.337 3.283 20.072.76 4.459-5.161 5.49-8.56 6.093l.015.029z"/>
    </g>
</svg>
